<?xml version="1.0" standalone="no"?>
<!DOCTYPE svg PUBLIC "-//W3C//DTD SVG 20010904//EN"
 "http://www.w3.org/TR/2001/REC-SVG-20010904/DTD/svg10.dtd">
<svg version="1.0" xmlns="http://www.w3.org/2000/svg"
 width="670.000000pt" height="670.000000pt" viewBox="0 0 670.000000 670.000000"
 preserveAspectRatio="xMidYMid meet">
<metadata>
Created by potrace 1.11, written by Peter Selinger 2001-2013
</metadata>
<g transform="translate(0.000000,670.000000) scale(0.100000,-0.100000)"
fill="#000000" stroke="none">
<path d="M1850 6523 c-14 -1 -77 -10 -140 -19 -374 -53 -708 -210 -954 -448
-150 -145 -245 -278 -331 -459 -125 -266 -175 -512 -170 -832 3 -204 7 -247
41 -420 10 -52 65 -228 93 -298 100 -249 270 -472 475 -621 81 -60 248 -152
326 -181 25 -9 54 -21 65 -25 43 -19 159 -50 243 -66 48 -9 96 -18 107 -20
100 -19 486 -26 635 -11 217 21 446 70 673 144 l77 24 0 805 0 804 -550 0
-550 0 0 -175 0 -176 203 1 c111 1 264 1 340 1 l137 -1 0 -498 0 -498 -62 -22
c-208 -70 -598 -85 -843 -31 -168 37 -357 119 -468 202 -245 186 -413 469
-463 782 -3 20 -8 47 -10 59 -16 82 -22 322 -10 454 13 159 65 346 134 492
113 234 313 432 546 540 76 36 210 84 266 96 130 27 226 37 380 38 166 1 235
-4 387 -28 67 -11 246 -63 306 -90 l55 -24 27 92 c14 50 35 123 46 161 11 39
22 77 25 86 3 12 -9 22 -44 37 -101 44 -333 100 -487 118 -58 6 -468 13 -505
7z"/>
<path d="M4869 3816 c-2 -2 -31 -6 -64 -9 -33 -3 -96 -13 -140 -22 -44 -9 -92
-19 -108 -21 -64 -12 -247 -78 -341 -123 -364 -176 -626 -470 -759 -851 -25
-71 -54 -177 -63 -227 -2 -13 -6 -35 -9 -50 -21 -113 -27 -417 -12 -543 81
-667 468 -1128 1077 -1281 177 -45 313 -58 560 -54 113 2 223 6 245 10 22 3
56 7 75 10 156 20 348 64 508 116 l92 31 0 751 0 752 -509 0 c-280 0 -512 -2
-515 -5 -4 -4 -10 -258 -7 -307 1 -10 72 -13 319 -13 l317 0 -1 -462 c-1 -255
-2 -466 -3 -470 -3 -17 -182 -59 -314 -74 -80 -8 -320 -9 -392 0 -292 36 -528
144 -702 322 -77 79 -164 204 -207 297 -29 63 -82 217 -89 263 -3 16 -8 40
-11 54 -15 68 -19 109 -22 285 -2 134 1 216 12 279 83 507 380 838 860 960
132 33 205 41 394 41 251 0 406 -25 593 -96 43 -16 80 -29 82 -29 4 0 54 159
88 276 l15 52 -67 26 c-183 72 -403 108 -687 112 -117 1 -213 1 -215 0z"/>
</g>
</svg>
